<svg width="420" height="128" viewBox="0 0 420 128" fill="none" xmlns="http://www.w3.org/2000/svg" role="img" aria-label="Jatri logo">
  <defs>
    <linearGradient id="jatriGradH" x1="0" y1="0" x2="1" y2="1">
      <stop offset="0" stop-color="#17b27c"/>
      <stop offset="1" stop-color="#0a9065"/>
    </linearGradient>
  </defs>
  <!-- icon -->
  <rect x="4" y="4" width="120" height="120" rx="28" fill="url(#jatriGradH)"/>
  <path d="M40 44c0-3.3 2.7-6 6-6h4c3.3 0 6 2.7 6 6v30h-16V44z" fill="#ffffff"/>
  <path d="M36 76c0-3.3 2.7-6 6-6h24c3.3 0 6 2.7 6 6v6H36v-6z" fill="#ffffff"/>
  <rect x="40" y="86" width="30" height="6" rx="3" fill="#ffffff"/>
  <path d="M84 34c-9.4 0-17 7.6-17 17 0 12 17 27 17 27s17-15 17-27c0-9.4-7.6-17-17-17z" fill="#ffffff"/>
  <circle cx="84" cy="51" r="7.5" fill="url(#jatriGradH)"/>
  <!-- wordmark -->
  <text x="148" y="82" font-family="'Segoe UI', Inter, system-ui, sans-serif" font-size="64" font-weight="800" fill="#0f172a" letter-spacing="-1">Jatri</text>
  <circle cx="396" cy="38" r="9" fill="#17b27c"/>
</svg>
